<?xml version="1.0" encoding="UTF-8" standalone="no"?>
<!-- Created with Inkscape (http://www.inkscape.org/) -->

<svg
   xmlns:dc="http://purl.org/dc/elements/1.1/"
   xmlns:cc="http://creativecommons.org/ns#"
   xmlns:rdf="http://www.w3.org/1999/02/22-rdf-syntax-ns#"
   xmlns:svg="http://www.w3.org/2000/svg"
   xmlns="http://www.w3.org/2000/svg"
   xmlns:sodipodi="http://sodipodi.sourceforge.net/DTD/sodipodi-0.dtd"
   xmlns:inkscape="http://www.inkscape.org/namespaces/inkscape"
   id="svg2"
   version="1.1"
   inkscape:version="0.91 r13725"
   xml:space="preserve"
   width="1052.3625"
   height="406.09375"
   viewBox="0 0 1052.3625 406.09375"
   sodipodi:docname="header-logo.svg"><metadata
     id="metadata8"><rdf:RDF><cc:Work
         rdf:about=""><dc:format>image/svg+xml</dc:format><dc:type
           rdf:resource="http://purl.org/dc/dcmitype/StillImage" /><dc:title></dc:title></cc:Work></rdf:RDF></metadata><defs
     id="defs6"><clipPath
       clipPathUnits="userSpaceOnUse"
       id="clipPath18"><path
         d="m 0,0 841.89,0 0,595.276 L 0,595.276 0,0 Z"
         id="path20"
         inkscape:connector-curvature="0" /></clipPath></defs><sodipodi:namedview
     pagecolor="#ffffff"
     bordercolor="#666666"
     borderopacity="1"
     objecttolerance="10"
     gridtolerance="10"
     guidetolerance="10"
     inkscape:pageopacity="0"
     inkscape:pageshadow="2"
     inkscape:window-width="1346"
     inkscape:window-height="827"
     id="namedview4"
     showgrid="false"
     inkscape:zoom="0.5"
     inkscape:cx="445.60261"
     inkscape:cy="94.073459"
     inkscape:window-x="37"
     inkscape:window-y="23"
     inkscape:window-maximized="0"
     inkscape:current-layer="g10"
     fit-margin-top="0"
     fit-margin-left="0"
     fit-margin-right="0"
     fit-margin-bottom="0" /><g
     id="g10"
     inkscape:groupmode="layer"
     inkscape:label="bezfrazi_grafika"
     transform="matrix(1.25,0,0,-1.25,0,744.09375)"><path
       d="m 0,270.4 841.89,0 0,324.875 L 0,595.275 0,270.4 Z"
       style="fill:#000000;fill-opacity:1;fill-rule:nonzero;stroke:none"
       id="path12"
       inkscape:connector-curvature="0" /><g
       id="g14"
       transform="matrix(3,0,0,3,-841.54391,-454.92564)"><g
         id="g16"
         clip-path="url(#clipPath18)"><g
           id="g22"
           transform="translate(555.8624,253.0757)"><path
             d="m 0,0 -23.881,89.124 -17.62,0 -9.214,-10.524 0,10.524 -35.906,0 -9.214,-10.524 0,10.524 -174,0 19.144,-71.447 L -266.166,0 0,0 Z m -218.022,46.135 c 4.515,-1.573 7.046,-5.198 8.414,-10.26 l 1.026,-3.898 c 1.983,-7.387 -0.89,-11.355 -8.414,-11.355 l -11.833,0 -12.722,47.88 11.286,0 c 7.797,0 12.107,-3.625 14.09,-11.012 l 0.479,-1.71 c 1.3,-4.925 0.616,-8.071 -2.326,-9.645 m 12.859,15.527 3.557,-13.338 10.328,0 1.847,-6.84 -10.328,0 3.693,-14.022 12.996,0 1.847,-6.84 -20.52,0 -12.722,47.88 20.451,0 1.847,-6.84 -12.996,0 z m 49.453,-41.04 -22.025,0 -1.778,6.704 5.13,34.336 -13.544,0 -1.846,6.84 21.272,0 1.778,-6.703 -5.13,-34.337 14.296,0 1.847,-6.84 z m 11.627,41.04 3.831,-14.432 9.713,0 1.846,-6.84 -9.712,0 5.266,-19.768 -7.524,0 -12.722,47.88 19.836,0 1.847,-6.84 -12.381,0 z m 46.033,-27.839 1.984,-7.387 c 0.615,-2.325 1.094,-4.035 2.325,-5.814 l -7.66,0 c -0.753,1.231 -1.163,1.984 -2.258,5.883 l -1.983,7.524 c -1.231,4.446 -3.147,6.087 -6.567,6.087 l -2.599,0 5.199,-19.494 -7.524,0 -12.723,47.88 11.286,0 c 7.798,0 12.107,-3.625 14.091,-11.012 l 1.026,-3.762 c 1.299,-4.925 0.547,-8.14 -2.326,-9.713 4.172,-1.573 6.361,-5.198 7.729,-10.192 m 12.312,34.679 20.451,-47.88 -7.592,0 -3.625,8.687 -9.234,0 1.026,-8.687 -6.909,0 -5.13,47.88 11.013,0 z m 35.157,-6.703 -5.13,-34.337 14.296,0 1.846,-6.84 -22.024,0 -1.779,6.704 5.13,34.336 -13.543,0 -1.847,6.84 21.273,0 1.778,-6.703 z m 22.298,-41.177 -7.524,0 -12.722,47.88 7.455,0 12.791,-47.88 z m -58.208,15.185 7.251,0 -10.124,24.214 2.873,-24.214 z m -24.076,16.211 -1.231,4.719 c -0.958,3.42 -2.463,4.925 -5.13,4.925 l -3.625,0 3.898,-14.706 2.942,0 c 2.804,0 4.172,1.231 3.146,5.062 M -217.269,36.354 c -1.231,4.446 -3.01,5.814 -6.43,5.814 l -3.351,0 3.898,-14.706 4.31,0 c 2.53,0 3.625,1.163 2.667,4.72 l -1.094,4.172 z m -5.541,17.716 -0.684,2.667 c -0.957,3.42 -2.462,4.925 -5.13,4.925 l -3.625,0 3.352,-12.654 2.941,0 c 2.804,0 4.172,1.231 3.146,5.062"
             style="fill:#ffffff;fill-opacity:1;fill-rule:nonzero;stroke:none"
             id="path24"
             inkscape:connector-curvature="0" /></g></g></g></g></svg>