<svg xmlns="http://www.w3.org/2000/svg" width="1052.36" height="406.09" viewBox="0 0 1052.36 406.09"><defs><clipPath clipPathUnits="userSpaceOnUse" id="a"><path d="M0 0h841.89v595.276H0V0z"/></clipPath></defs><path d="M0 406.094h1052.362V0H0v406.094z"/><g clip-path="url(#a)" transform="matrix(3.75 0 0 -3.75 -1051.93 1312.75)"><path d="M555.862 253.076l-23.88 89.124h-17.62l-9.215-10.524V342.2h-35.906l-9.214-10.524V342.2h-174l19.144-71.447-15.475-17.677h266.166zM337.84 299.21c4.515-1.573 7.046-5.198 8.414-10.26l1.026-3.898c1.983-7.387-.89-11.355-8.414-11.355h-11.833l-12.722 47.88h11.286c7.797 0 12.107-3.625 14.09-11.012l.48-1.71c1.3-4.925.615-8.071-2.327-9.645m12.86 15.527l3.556-13.338h10.328l1.847-6.84h-10.328l3.693-14.022h12.996l1.847-6.84h-20.52l-12.722 47.88h20.451l1.847-6.84H350.7zm49.452-41.04h-22.025l-1.778 6.704 5.13 34.336h-13.544l-1.846 6.84h21.272l1.778-6.703-5.13-34.337h14.296l1.847-6.84zm11.627 41.04l3.831-14.432h9.713l1.846-6.84h-9.712l5.266-19.768H415.2l-12.722 47.88h19.836l1.847-6.84h-12.38zm46.033-27.84l1.984-7.386c.615-2.325 1.094-4.035 2.325-5.814h-7.66c-.753 1.23-1.163 1.984-2.258 5.883l-1.983 7.524c-1.23 4.446-3.147 6.087-6.567 6.087h-2.599l5.2-19.494h-7.525l-12.723 47.88h11.286c7.798 0 12.107-3.625 14.091-11.012l1.026-3.762c1.3-4.925.547-8.14-2.326-9.713 4.172-1.573 6.361-5.198 7.73-10.192m12.311 34.679l20.451-47.88h-7.592l-3.625 8.687h-9.234l1.026-8.687h-6.909l-5.13 47.88h11.013zm35.157-6.703l-5.13-34.337h14.296l1.846-6.84H494.27l-1.779 6.704 5.13 34.336h-13.543l-1.847 6.84h21.273l1.778-6.703zm22.298-41.177h-7.524l-12.722 47.88h7.455l12.791-47.88zm-58.208 15.185h7.251l-10.124 24.214 2.873-24.214zm-24.076 16.21l-1.23 4.72c-.959 3.42-2.464 4.925-5.13 4.925h-3.626l3.898-14.706h2.942c2.804 0 4.172 1.23 3.146 5.062M338.593 289.43c-1.23 4.446-3.01 5.814-6.43 5.814h-3.35l3.897-14.706h4.31c2.53 0 3.625 1.163 2.667 4.72l-1.094 4.172zm-5.54 17.716l-.685 2.667c-.957 3.42-2.462 4.925-5.13 4.925h-3.625l3.352-12.654h2.941c2.804 0 4.172 1.23 3.146 5.062" fill="#fff"/></g></svg>